<svg width="60" height="60" xmlns="http://www.w3.org/2000/svg" preserveAspectRatio="xMidYMid meet">
 <metadata>Created by potrace 1.15, written by Peter Selinger 2001-2017</metadata>

 <g>
  <title>background</title>
  <rect fill="none" id="canvas_background" height="60" width="60" y="-1" x="-1"/>
 </g>
 <g>
  <title>Guardar el texto editado</title>
  <g stroke="null" id="svg_1" fill="#000000" transform="translate(0,128) scale(0.10000000149011612,-0.10000000149011612) ">
   <path stroke-width="0" stroke="null" fill="#444c34" id="svg_2" d="m37.337519,1256.964066c-5.531251,-3.703125 -13.643751,-11.85 -17.331252,-17.404688c-6.637501,-10.36875 -7.006251,-21.107813 -7.006251,-212.559376c0,-191.451563 0.36875,-202.190626 7.006251,-212.559376c3.6875,-5.554688 11.800001,-13.701563 17.331252,-17.404688c10.325001,-6.665625 21.018752,-7.035938 211.662521,-7.035938c190.643769,0 201.33752,0.370313 211.662521,7.035938c5.531251,3.703125 13.643751,11.85 17.331252,17.404688c6.637501,9.998438 7.006251,20.367188 7.006251,185.156251c0,173.306251 0,174.787501 -8.112501,185.156251c-12.906251,17.404688 -44.250004,49.251563 -63.056256,64.804688l-18.068752,14.442188l-173.681267,0c-164.462516,0 -174.787517,-0.370313 -184.743768,-7.035938zm328.925032,-17.404688c7.743751,-5.554688 8.112501,-7.40625 8.112501,-75.54375c0,-68.1375 -0.36875,-69.989063 -8.112501,-75.54375c-7.006251,-5.184375 -25.443753,-5.925 -126.850013,-5.925c-107.675011,0 -119.475012,0.740625 -126.481262,6.665625c-7.743751,5.925 -8.112501,8.517188 -7.006251,76.654688l1.10625,69.989063l9.218751,4.814063c7.006251,3.332813 39.087504,4.814063 125.375012,4.814063c99.56251,0 117.631262,-0.740625 124.637512,-5.925zm58.262506,-221.446876c7.743751,-10.739063 7.743751,-189.970313 0,-200.709376c-5.162501,-6.665625 -11.431251,-7.035938 -175.525017,-7.035938c-164.093766,0 -170.362517,0.370313 -175.525017,7.035938c-4.05625,5.925 -5.162501,25.921875 -5.162501,100.354688c0,95.170313 0.7375,101.465625 14.750001,106.650001c2.95,1.110938 80.018758,1.851563 170.731267,1.48125c158.931266,-0.740625 165.568766,-1.110938 170.731267,-7.776563z"/>
   <path stroke-width="0" stroke="null" fill="#444c34" id="svg_3" d="m294.342046,1164.015628l0,-66.65625l29.500003,0l29.500003,0l0,66.65625l0,66.65625l-29.500003,0l-29.500003,0l0,-66.65625z"/>
  </g>
  <path id="svg_4" d="m535.5,164.5c0,0 -101,-33 -101,-33c0,0 -63,77 -63,77" opacity="0.5" stroke="#000" fill="#426373"/>
 </g>
</svg>