<svg xmlns="http://www.w3.org/2000/svg" width="54" height="54" style=""><rect id="backgroundrect" width="100%" height="100%" x="0" y="0" fill="none" stroke="none"/><g class="currentLayer" style=""><title>Selecciona un archivo local de texto</title><path d="M23.736324330867376,0.884955075608271 l-10.941149948553901,12.297188617322373 h6.94342208273613 v12.799114683335526 h7.995455731635545 v-12.799114683335526 h6.94342208273613 l-10.941149948553901,-12.297188617322373 zm19.567825869529095,28.860748795756585 l-6.733015352956247,-5.270223693138159 h-4.208134595597654 l7.1538288125160125,6.525038858171054 h-7.364235542295895 c-0.21040672977988292,0 -0.42081345955976596,0.25096303300657913 -0.42081345955976596,0.25096303300657913 l-1.6832538382390623,5.772149759151317 h-12.624403786792962 l-1.6832538382390623,-5.521186726144739 c-0.21040672977988292,-0.25096303300657913 -0.21040672977988292,-0.5019260660131585 -0.42081345955976596,-0.5019260660131585 h-7.574642272075779 l7.1538288125160125,-6.525038858171054 h-4.208134595597654 l-6.733015352956247,5.270223693138159 c-0.8416269191195308,0.7528890990197379 -1.4728471084591797,2.5096303300657903 -1.262440378679297,3.764445495098685 l1.262440378679297,7.779854023203949 c0.21040672977988292,1.2548151650328951 1.4728471084591797,2.258667297059211 2.524880757358593,2.258667297059211 h34.29629695412088 c1.262440378679297,0 2.3144740275787106,-1.0038521320263163 2.735287487138476,-2.258667297059211 l1.262440378679297,-7.779854023203949 c0.21040672977988292,-1.2548151650328951 -0.42081345955976596,-3.011556396078948 -1.4728471084591797,-3.764445495098685 z" id="svg_1" class="" fill="#41e8e8" fill-opacity="1" stroke="#000000" stroke-opacity="1"/></g></svg>